<svg xmlns="http://www.w3.org/2000/svg" viewBox="0 0 80 80"><defs><style>.cls-1{fill:none;}.cls-2{fill:#008fff;}</style></defs><title>skills_icon_06</title><g id="Layer_2" data-name="Layer 2"><g id="Layer_1-2" data-name="Layer 1"><circle class="cls-1" cx="40" cy="40" r="40"/><path class="cls-2" d="M60.4,42.11a2,2,0,0,0-.26-.64,66.57,66.57,0,0,1-3.69-5.77,2.51,2.51,0,0,1-.21-1,2.12,2.12,0,0,1,.12-.67,14.21,14.21,0,0,0,.2-3.4C56.49,29,55,25,51.46,21.93a18,18,0,0,0-9.36-4c-2.34-.37-8.42-1.33-14,2.57a16.2,16.2,0,0,0-6.52,9.62A17.26,17.26,0,0,0,23,40.44c.76,1.55,2.69,3.28,4.31,6.53a11.16,11.16,0,0,1,1.58,6.42,12.51,12.51,0,0,1-1.41,5.12.62.62,0,0,0,.33.85A29.87,29.87,0,0,0,33.75,61a34.21,34.21,0,0,0,6.24.38,17.22,17.22,0,0,0,6.12-1.11,2.55,2.55,0,0,0,1.23-1.06c.29-.55.08-.82.23-1.84a3.34,3.34,0,0,1,.91-2.23A2.67,2.67,0,0,1,50,54.65a7,7,0,0,1,1.82.14,7.14,7.14,0,0,0,2.49,0,2.91,2.91,0,0,0,1.84-1,2.71,2.71,0,0,0,.41-1.38,37.36,37.36,0,0,0,0-4.1,7.12,7.12,0,0,1,.27-2.11,3,3,0,0,1,1.08-1.81,11.58,11.58,0,0,1,1.32-.53c.78-.33,1-.44,1.08-.65A1.51,1.51,0,0,0,60.4,42.11ZM41.35,47a2.36,2.36,0,0,1-.5.74,2.52,2.52,0,0,1-.75.5,2.11,2.11,0,0,1-.9.19,2.17,2.17,0,0,1-.92-.19A2.35,2.35,0,0,1,37,47a2.3,2.3,0,0,1,0-1.83,2.34,2.34,0,0,1,.5-.76,2.57,2.57,0,0,1,.74-.51,2.33,2.33,0,0,1,.92-.19,2.27,2.27,0,0,1,.9.19,2.76,2.76,0,0,1,.75.51,2.34,2.34,0,0,1,.5.76,2.3,2.3,0,0,1,0,1.83Zm4.32-10.15a3.13,3.13,0,0,1-.78,1,4.47,4.47,0,0,1-1,.7c-.38.18-.76.39-1.13.61a4.91,4.91,0,0,0-1,.81A3.31,3.31,0,0,0,41,41.3H37.21a6.34,6.34,0,0,1,.13-2A4.3,4.3,0,0,1,37.92,38a3.52,3.52,0,0,1,.81-.86,9.37,9.37,0,0,1,.89-.57l.76-.46a1.15,1.15,0,0,0,.45-.56,1,1,0,0,0,0-.47.92.92,0,0,0-.23-.49,1.45,1.45,0,0,0-.58-.4,2.55,2.55,0,0,0-1-.16,7.19,7.19,0,0,0-1,.07,10.68,10.68,0,0,0-1.16.22c-.4.1-.8.23-1.19.37a6.4,6.4,0,0,0-1,.5l-.5-4.38.94-.51a9.31,9.31,0,0,1,1.14-.47,11.43,11.43,0,0,1,1.37-.34,8.79,8.79,0,0,1,1.58-.13,8.52,8.52,0,0,1,2.6.38A6.16,6.16,0,0,1,44,30.85a5.35,5.35,0,0,1,1.45,1.81A5.44,5.44,0,0,1,46,35.13,4.1,4.1,0,0,1,45.67,36.84Z"/></g></g></svg>