<svg xmlns="http://www.w3.org/2000/svg" viewBox="0 0 80 80"><defs><style>.cls-1{fill:none;}.cls-2{fill:#008fff;}</style></defs><title>skills_icon_07</title><g id="Layer_2" data-name="Layer 2"><g id="Layer_1-2" data-name="Layer 1"><circle class="cls-1" cx="40" cy="40" r="40"/><path class="cls-2" d="M28.12,59.77c-.2-4.13,1.52-8.36,6.11-10.31l.09,0A1.27,1.27,0,0,1,36,49.6a7.13,7.13,0,0,0,8.9-.2.87.87,0,0,1,1-.14c4.59,1.78,6.6,5.59,6.61,10.14,0,.28-.1.4-.38.38a4.13,4.13,0,0,0-.5,0H28.12Z"/><path class="cls-2" d="M45.67,29.38c-.77,0-1.5,0-2.23,0a1.87,1.87,0,0,0-1.2.36c-1.52,1-3.06,2.05-4.59,3.07l-.32.2c0-.19,0-.33,0-.46,0-.9,0-1.79,0-2.69,0-.32-.08-.46-.42-.52A3.25,3.25,0,0,1,34,26q0-2.94,0-5.88a3.26,3.26,0,0,1,3.39-3.35c3.49,0,7,0,10.46,0a3.29,3.29,0,0,1,3.39,3.36c0,1.06,0,2.13,0,3.19,0,.45-.14.54-.57.54a4.83,4.83,0,0,0-4.93,4.05C45.7,28.34,45.71,28.82,45.67,29.38Z"/><path class="cls-2" d="M33.34,46.57H15.15a10.6,10.6,0,0,1,.66-4.27,8.62,8.62,0,0,1,5.24-5.12.86.86,0,0,1,.76.12,9.67,9.67,0,0,0,2.39,1.18,5.71,5.71,0,0,0,3.89,0,7.76,7.76,0,0,0,2.22-1.27.62.62,0,0,1,.67-.1c.66.34,1.33.66,2,1a.39.39,0,0,1,.21.6,9.14,9.14,0,0,0-.18,7C33.11,46,33.22,46.26,33.34,46.57Z"/><path class="cls-2" d="M46.22,42.44a7.13,7.13,0,0,1-1.44,4.36,5.54,5.54,0,0,1-9.32-.37,7.21,7.21,0,0,1-.83-6.25,6.31,6.31,0,0,1,3.28-4,5.44,5.44,0,0,1,6.59,1.52A7.31,7.31,0,0,1,46.22,42.44Z"/><path class="cls-2" d="M20.73,31a6.34,6.34,0,0,1,1.69-4.44,5,5,0,0,1,7.66.36,6.72,6.72,0,0,1,0,8.11,5.27,5.27,0,0,1-1.78,1.4,4.31,4.31,0,0,1-4.55,0A6,6,0,0,1,20.73,31Z"/><path class="cls-2" d="M50.49,41.61V38.05c-.26-.09-.49-.2-.74-.26A3,3,0,0,1,47.26,35c-.06-2.2-.08-4.41,0-6.62a3.18,3.18,0,0,1,3.16-3c3.62,0,7.23,0,10.85,0a3.24,3.24,0,0,1,3.19,3.24c0,2,0,4.08,0,6.12A3.3,3.3,0,0,1,61.15,38c-1.46,0-2.91,0-4.37,0a2.29,2.29,0,0,0-1.34.39c-1.5,1.05-3,2.05-4.57,3.06ZM52,38.93c1.17-.78,2.21-1.49,3.27-2.17a1.51,1.51,0,0,1,.77-.23c1.69,0,3.38,0,5.07,0A1.82,1.82,0,0,0,63,34.64q0-3,0-6a1.82,1.82,0,0,0-1.89-1.89q-5.28,0-10.56,0a1.83,1.83,0,0,0-1.88,1.86c0,2,0,4,0,6a1.85,1.85,0,0,0,1.93,1.86H52Z"/></g></g></svg>