<svg xmlns="http://www.w3.org/2000/svg" viewBox="0 0 80 80"><defs><style>.cls-1{fill:none;}.cls-2{fill:#008fff;}</style></defs><title>skills_icon_03</title><g id="Layer_2" data-name="Layer 2"><g id="Layer_1-2" data-name="Layer 1"><circle class="cls-1" cx="40" cy="40" r="40"/><path class="cls-2" d="M43,59.88a1.67,1.67,0,0,0,.63,1.77,1.79,1.79,0,0,0,1.71,0c3.13-1.27,7-8,7.35-8.69a52.59,52.59,0,0,0,3.93-8.52c-1-.52-2.28-1.39-3.3-1.91-2.68,3.69-4.69,6.39-6,8.13C47.32,50.61,43.86,55.43,43,59.88Z"/><path class="cls-2" d="M54.25,40a2.43,2.43,0,0,1,.89-2.14,4,4,0,0,1,1.94-.63c1-.17,1.18-.06,1.62-.19.6-.17,1.4-.71,2.09-2.44a8.88,8.88,0,0,1,.13,4c-.27,1.32-.55,2.65-1.75,3.34a3.6,3.6,0,0,1-3.71-.28A2.61,2.61,0,0,1,54.25,40Z"/><path class="cls-2" d="M26.89,44.66l-2.91-5h0l-5.11-9.17a15.52,15.52,0,0,0-2.16,14.21Z"/><path class="cls-2" d="M29.4,33.15H45.64a15.58,15.58,0,0,0-11.15-8.81Z"/><path class="cls-2" d="M24.83,38.16l2.79-4.83,5.32-9.22c-.48,0-1-.07-1.47-.07a15.58,15.58,0,0,0-11.61,5.19Z"/><path class="cls-2" d="M36.05,34.6l2.69,4.65,5.74,9A15.55,15.55,0,0,0,46.22,34.6Z"/><path class="cls-2" d="M38.15,41l-2.72,4.71-4.84,9.45c.29,0,.58,0,.88,0a15.53,15.53,0,0,0,12.08-5.75Z"/><path class="cls-2" d="M33.6,46.11H17.29A15.61,15.61,0,0,0,29,55Z"/><path class="cls-2" d="M44.06,27.63l3.34-9.1a2,2,0,0,1,.82-1,2.47,2.47,0,0,1,1.3-.34,2.53,2.53,0,0,1,1.29.33,1.83,1.83,0,0,1,.82,1L55,27.63H52.32l-.64-2H47.31l-.67,2Zm3.88-4H51l-1.3-4.1a.23.23,0,0,0-.08-.12.2.2,0,0,0-.13,0,.22.22,0,0,0-.19.16Z"/><path class="cls-2" d="M58.86,27.8a3.08,3.08,0,0,1-1.76-.51,3.44,3.44,0,0,1-1.19-1.39,4.35,4.35,0,0,1-.43-2,4.18,4.18,0,0,1,.5-2.05,3.71,3.71,0,0,1,1.42-1.44,4.28,4.28,0,0,1,2.17-.53,4.15,4.15,0,0,1,2.15.53,3.44,3.44,0,0,1,1.36,1.42,4.24,4.24,0,0,1,.48,2v3.75H61.33V26.42h-.06a2.68,2.68,0,0,1-.53.72,2.3,2.3,0,0,1-.78.49A3.06,3.06,0,0,1,58.86,27.8Zm.68-2a1.61,1.61,0,0,0,.9-.26,1.67,1.67,0,0,0,.6-.71,2.61,2.61,0,0,0,.2-1,2.38,2.38,0,0,0-.2-1,1.64,1.64,0,0,0-.6-.7,1.61,1.61,0,0,0-.9-.26,1.69,1.69,0,0,0-.93.26,1.64,1.64,0,0,0-.6.7,2.24,2.24,0,0,0-.21,1,2.45,2.45,0,0,0,.21,1,1.61,1.61,0,0,0,1.53,1Z"/></g></g></svg>