<svg xmlns="http://www.w3.org/2000/svg" viewBox="0 0 72 72"><defs><style>.cls-1{fill:#008fff;}.cls-2{fill:none;}</style></defs><title>skills_icon_05_1</title><g id="Layer_2" data-name="Layer 2"><g id="Layer_1-2" data-name="Layer 1"><path class="cls-1" d="M22.4,38.6a2.89,2.89,0,0,1,.69-1.82,1.66,1.66,0,0,0,.43-1.51.51.51,0,0,0-.45-.4c-1-.21-2-.41-3-.66-1.16-.29-1.46-.85-1.2-2.05.2-.92.38-1.86.61-2.78a.58.58,0,0,0-.38-.74,2.17,2.17,0,0,0-1.42-.07,2.79,2.79,0,1,1,.9-5.05,7.56,7.56,0,0,0,.9.53,1.89,1.89,0,0,0,.67.11.52.52,0,0,0,.56-.49c.2-1,.44-2.07.67-3.11a1.45,1.45,0,0,1,1.8-1.13c1,.23,2.07.45,3.1.7a.43.43,0,0,0,.51-.22A2,2,0,0,0,27,18.27a2.83,2.83,0,0,1,1.43-3.09,2.76,2.76,0,0,1,3.33.61A2.84,2.84,0,0,1,32,19.18a10.67,10.67,0,0,0-.59,1.11,1.15,1.15,0,0,0-.07.49.53.53,0,0,0,.48.56c1,.2,2,.44,3,.64A1.5,1.5,0,0,1,36,23.88c-.21,1-.41,2-.66,3a.57.57,0,0,0,.38.74,2.1,2.1,0,0,0,1.42.06,2.75,2.75,0,0,1,1.89.25,2.79,2.79,0,1,1-2.89,4.75A3.72,3.72,0,0,0,35,32.12c-.56-.15-.82.06-.9.56-.17,1-.43,2-.65,3.07a1.52,1.52,0,0,1-1.75,1.09l-2.25-.5a7.66,7.66,0,0,1-.8-.18c-.38-.14-.57.05-.71.34a2.19,2.19,0,0,0-.1,1.49,2.76,2.76,0,1,1-5.4,1.17C22.42,39,22.42,38.76,22.4,38.6Z"/><path class="cls-1" d="M44.23,32.94a3.14,3.14,0,0,0,3.46-2.75,3.23,3.23,0,0,0-2.48-3.57,3.12,3.12,0,0,0-2.89.77,5,5,0,0,1-.85.6c-.23.13-.42.06-.52-.24-.31-.93-.65-1.86-1-2.8a1.43,1.43,0,0,1,.89-1.9c1-.38,2-.75,3-1.1a.46.46,0,0,0,.36-.5,2,2,0,0,0-.64-1.37,3,3,0,0,1-.78-1.4,2.67,2.67,0,0,1,1-2.81,2.58,2.58,0,0,1,2.92-.34A2.67,2.67,0,0,1,48.27,18a13,13,0,0,0,.11,1.4,1.35,1.35,0,0,0,.28.49.42.42,0,0,0,.56.15c1-.38,2-.73,3-1.08a1.45,1.45,0,0,1,2,.94c.35,1,.71,1.92,1,2.89.15.49.44.58.82.43a4.61,4.61,0,0,0,1.18-.72A2.78,2.78,0,1,1,59,27.34a7.81,7.81,0,0,0-1,0,1.8,1.8,0,0,0-.64.22c-.4.22-.45.39-.3.82.35,1,.69,1.93,1,2.89a1.47,1.47,0,0,1-.91,2c-1,.36-2,.73-3,1.07a.53.53,0,0,0-.39.63,2,2,0,0,0,.62,1.23,3.17,3.17,0,0,1,.82,1.46,2.77,2.77,0,1,1-5.45.9,3.84,3.84,0,0,1,0-.83,2.16,2.16,0,0,0-.3-1.27c-.13-.27-.46-.32-.79-.19l-3.22,1.13A1.5,1.5,0,0,1,44,36.5c-.34-1-.69-2-1-3a.27.27,0,0,1,.18-.4C43.52,33.05,43.87,33,44.23,32.94Z"/><path class="cls-1" d="M15.06,44.48c-.27,0-.51.06-.74.11a2.79,2.79,0,1,1,1.07-5,2.49,2.49,0,0,0,1.34.58c.49,0,.61-.09.71-.57.22-1,.43-2.07.67-3.1a1.41,1.41,0,0,1,1.35-1.11,3.61,3.61,0,0,1,.65.08,13.08,13.08,0,0,1,1.39.33c.74.27.56.65.38,1.13a5,5,0,0,0-.43,1.85A3.62,3.62,0,0,0,23.35,42,3.77,3.77,0,0,0,27.09,42a3.64,3.64,0,0,0,1.83-2.59,8,8,0,0,0,0-1.53c0-.19.12-.31.37-.26.94.22,1.22.22,2.17.41a1.5,1.5,0,0,1,1.25,1.92c-.22,1-.42,2-.66,3a.5.5,0,0,0,.25.6,2.23,2.23,0,0,0,1.44.19,9.44,9.44,0,0,1,1.49,0,2.54,2.54,0,0,1,2,2.24A2.76,2.76,0,0,1,33,48.76a9.74,9.74,0,0,0-.93-.54,1.52,1.52,0,0,0-.6-.11.54.54,0,0,0-.64.51c-.19,1-.43,2.05-.66,3.07a1.44,1.44,0,0,1-1.8,1.13L16.78,50.27a1.5,1.5,0,0,1-1.22-2c.2-.94.41-1.88.61-2.82.12-.53,0-.72-.5-.89C15.47,44.53,15.25,44.52,15.06,44.48Z"/><path class="cls-1" d="M40.89,46.23a3.25,3.25,0,0,0,3.19-3.71A5.94,5.94,0,0,1,44,41.41c0-.42.15-.48.57-.39l2.78.61a1.44,1.44,0,0,1,1.15,1.76c-.21,1-.44,2-.66,3.08-.1.44,0,.57.38.77a2.34,2.34,0,0,0,1.48,0,2.79,2.79,0,0,1,1.74,5.25,2.74,2.74,0,0,1-2.81-.24,5.09,5.09,0,0,0-.94-.52,1.52,1.52,0,0,0-.64-.05.43.43,0,0,0-.43.4c-.2,1-.43,2-.63,3a1.51,1.51,0,0,1-2,1.3L32.9,54l-.57-.12a1.46,1.46,0,0,1-1.08-1.68c.2-1,.28-1.37.49-2.38.06-.26.21-.36.44-.27s.59.26.93.41c2,1.17,4.48-.15,5.12-2.33s-1-5.07-3.55-4.73a3.47,3.47,0,0,1-1,0,.36.36,0,0,1-.31-.44c.22-1,.23-1.3.45-2.27a1.44,1.44,0,0,1,1.8-1.14c1,.19,1.9.43,2.86.62.31.06.38.24.29.49a4.13,4.13,0,0,1-.45.89,3.26,3.26,0,0,0,1.82,5.06C40.38,46.18,40.64,46.19,40.89,46.23Z"/><circle class="cls-2" cx="36" cy="36" r="36"/></g></g></svg>