<svg xmlns="http://www.w3.org/2000/svg" viewBox="0 0 80 80"><defs><style>.cls-1{fill:none;}.cls-2{fill:#008fff;}</style></defs><title>skills_icon_09</title><g id="Layer_2" data-name="Layer 2"><g id="Layer_1-2" data-name="Layer 1"><circle class="cls-1" cx="40" cy="40" r="40"/><path class="cls-2" d="M40.22,22.63H56.66A3.22,3.22,0,0,1,60,25.08a4.11,4.11,0,0,1,.1,1.05q0,5.67,0,11.36v14a3.26,3.26,0,0,1-3.53,3.52H24a3.29,3.29,0,0,1-3.6-3.62V26.23A3.29,3.29,0,0,1,24,22.63ZM22.63,30.2v9q0,6.13,0,12.27c0,1.09.33,1.42,1.43,1.42H56.4c1.15,0,1.46-.31,1.46-1.48V30.86c0-.69,0-.69-.68-.69H23.29Zm7.28-4.84a1.15,1.15,0,1,0,1.14,1.15A1.17,1.17,0,0,0,29.91,25.36Zm-3,1.14a1.15,1.15,0,1,0-1.12,1.16A1.15,1.15,0,0,0,26.87,26.5Z"/><path class="cls-2" d="M36.38,49.32c.58-1.6,1.12-3.1,1.67-4.6.69-1.86,1.39-3.72,2.07-5.58.49-1.34,1-2.68,1.41-4a.66.66,0,0,1,.79-.54c.49,0,1,0,1.56,0-.07.23-.12.41-.19.58q-2.49,6.84-5,13.67c-.14.38-.3.54-.71.51S37,49.32,36.38,49.32Z"/><path class="cls-2" d="M35.39,46.66,33,45.39c-1.42-.74-2.83-1.49-4.26-2.22-.33-.17-.56-.34-.49-.75s-.18-.82.44-1.13c1.46-.72,2.84-1.59,4.26-2.39.78-.44,1.57-.86,2.48-1.35,0,.35,0,.62,0,.88s-.07.23,0,.31c.3.89-.38,1.09-.94,1.37L30.52,42a1.46,1.46,0,0,0-.22.17c.16.09.28.17.41.23,1.42.66,2.84,1.33,4.26,2,.3.14.45.29.43.63C35.37,45.52,35.39,46,35.39,46.66Z"/><path class="cls-2" d="M50.24,42.08,48.11,41c-.91-.47-1.83-.92-2.73-1.39a.59.59,0,0,1-.26-.39c0-.54,0-1.08,0-1.71.2.09.34.14.47.21l5.14,2.8c.44.24.89.48,1.33.74.1.06.15.21.23.32a.33.33,0,0,1,0,.1,1.33,1.33,0,0,1-.86,1.6c-2,.95-3.91,2-5.86,3l-.43.2c0-.68,0-1.3,0-1.92,0-.11.23-.23.38-.3l4.17-1.93Z"/></g></g></svg>