<svg xmlns="http://www.w3.org/2000/svg" viewBox="0 0 80 80"><defs><style>.cls-1{fill:none;}.cls-2{fill:#008fff;}</style></defs><title>skills_icon_02</title><g id="Layer_2" data-name="Layer 2"><g id="Layer_1-2" data-name="Layer 1"><circle class="cls-1" cx="40" cy="40" r="40"/><path class="cls-2" d="M40.22,48.94a9.19,9.19,0,1,1,9.19-9.19A9.2,9.2,0,0,1,40.22,48.94Zm0-16.91A7.73,7.73,0,1,0,48,39.75,7.72,7.72,0,0,0,40.22,32Z"/><path class="cls-2" d="M26.77,19.8A4.15,4.15,0,0,0,23.56,19a4.06,4.06,0,0,0-3.08,2.73V51.16a5.1,5.1,0,0,1,2.31-1.25,5.29,5.29,0,0,1,3.77.55Z"/><path class="cls-2" d="M58.25,26.62V24H56.08L54.9,25.24H57v2.67Z"/><path class="cls-2" d="M57,28.89V55H23.8a2.08,2.08,0,0,1-2.07-2.08V25.24H54L55.15,24H20.49V52.94a3.31,3.31,0,0,0,3.31,3.31H58.25V27.6Z"/><path class="cls-2" d="M58.59,21.36l.91-.93c.1-.11.2-.22.31-.32a.86.86,0,0,1,1.18,0c.42.38.84.78,1.25,1.19a.85.85,0,0,1,0,1.15c-.41.45-.84.87-1.25,1.29Z"/><path class="cls-2" d="M60,24.8c-.37.37-.74.75-1.1,1.13l-5.2,5.46a.45.45,0,0,1-.14.1l-3.4,1.23-.1,0c.14-.46.27-.89.41-1.33.22-.72.44-1.44.67-2.16a.51.51,0,0,1,.12-.2L53.22,27l4.48-4.69.08-.08,2.46,2.35Z"/><path class="cls-2" d="M42,46a.34.34,0,0,1-.29-.16l-2.51-4.15-4.59-.68a.33.33,0,0,1-.28-.26.34.34,0,0,1,.14-.36l9.41-6.16a.33.33,0,0,1,.38,0,.34.34,0,0,1,.14.35L42.34,45.76a.34.34,0,0,1-.27.28Zm-6.4-5.53,3.86.56a.37.37,0,0,1,.24.16l2.13,3.52,1.76-9.47Z"/><polygon class="cls-2" points="43.95 34.64 39.35 41.4 39.42 41.41 42.01 45.7 44.08 34.55 43.95 34.64"/></g></g></svg>