<svg xmlns="http://www.w3.org/2000/svg" viewBox="0 0 80 80"><defs><style>.cls-1{fill:none;}.cls-2{fill:#008fff;}</style></defs><title>skills_icon_01</title><g id="Layer_2" data-name="Layer 2"><g id="Layer_1-2" data-name="Layer 1"><circle class="cls-1" cx="40" cy="40" r="40"/><path class="cls-2" d="M59,28.88H50.13a11,11,0,1,1-18.37,0h-9a1.52,1.52,0,0,0-1.51,1.51v19H37.09a.32.32,0,0,1,.25.12l.63.74h5.88l.61-.61a.37.37,0,0,1,.24-.1H60.48V30.39A1.52,1.52,0,0,0,59,28.88Z"/><path class="cls-2" d="M40.94,46.81A11.8,11.8,0,1,1,52.75,35,11.82,11.82,0,0,1,40.94,46.81Zm0-22.84A11,11,0,1,0,52,35,11,11,0,0,0,40.94,24Z"/><path class="cls-2" d="M40.94,38.87H36.61c-.25,0-.31-.09-.29-.32a4.66,4.66,0,0,1,3.8-4.22,4.6,4.6,0,0,1,5.13,2.88,9.82,9.82,0,0,1,.31,1.35c.06.25-.06.31-.29.31Z"/><path class="cls-2" d="M43.62,30.78a2.68,2.68,0,1,1-5.35-.05,2.68,2.68,0,0,1,5.35.05Z"/><path class="cls-2" d="M35.37,34.22a2.3,2.3,0,1,1,2.3-2.29A2.29,2.29,0,0,1,35.37,34.22Z"/><path class="cls-2" d="M46.52,34.22a2.3,2.3,0,1,1,2.3-2.3A2.29,2.29,0,0,1,46.52,34.22Z"/><path class="cls-2" d="M37,35.07c-.32.49-.64.94-.91,1.42a5,5,0,0,0-.57,2.1c0,.2,0,.29-.27.29-1.09,0-2.18,0-3.26,0-.23,0-.28-.1-.3-.29a3.7,3.7,0,0,1,2.62-3.75,3.63,3.63,0,0,1,2.41.09l.2.09Z"/><path class="cls-2" d="M44.87,35.09a3.68,3.68,0,0,1,5.34,3.49c0,.21-.08.3-.31.3-1.08,0-2.16,0-3.23,0-.16,0-.28,0-.29-.22A5.41,5.41,0,0,0,45,35.23,1.16,1.16,0,0,1,44.87,35.09Z"/><path class="cls-2" d="M53.57,27.71a.37.37,0,0,1-.35-.38V23.59a.37.37,0,0,1,.35-.38h7.84a.38.38,0,0,1,0,.76H53.92v3.36A.36.36,0,0,1,53.57,27.71Z"/><path class="cls-2" d="M62.85,25a1.53,1.53,0,1,1,1.53-1.53A1.54,1.54,0,0,1,62.85,25Zm0-2.31a.78.78,0,0,0,0,1.55.78.78,0,0,0,0-1.55Z"/><path class="cls-2" d="M61.45,55.66H53.57a.37.37,0,0,1-.35-.38V51.54a.36.36,0,1,1,.71,0v3.37h7.52a.35.35,0,0,1,.35.37A.36.36,0,0,1,61.45,55.66Z"/><path class="cls-2" d="M62.85,56.93a1.53,1.53,0,1,1,1.53-1.53A1.53,1.53,0,0,1,62.85,56.93Zm0-2.3a.78.78,0,1,0,.77.77A.78.78,0,0,0,62.85,54.63Z"/><path class="cls-2" d="M28.45,27.71a.37.37,0,0,1-.36-.38V24H20.43a.38.38,0,0,1,0-.76h8a.37.37,0,0,1,.36.38v3.74A.37.37,0,0,1,28.45,27.71Z"/><path class="cls-2" d="M19.18,25a1.53,1.53,0,1,1,1.53-1.53A1.54,1.54,0,0,1,19.18,25Zm0-2.31a.78.78,0,1,0,.77.78A.77.77,0,0,0,19.18,22.69Z"/><path class="cls-2" d="M28.45,55.66H20.32a.38.38,0,0,1-.37-.38.37.37,0,0,1,.37-.37h7.76V51.54a.38.38,0,0,1,.37-.38.37.37,0,0,1,.36.38v3.74A.37.37,0,0,1,28.45,55.66Z"/><path class="cls-2" d="M19.18,56.93a1.53,1.53,0,1,1,1.53-1.53A1.53,1.53,0,0,1,19.18,56.93Zm0-2.3a.78.78,0,1,0,.77.77A.77.77,0,0,0,19.18,54.63Z"/></g></g></svg>