<svg xmlns="http://www.w3.org/2000/svg" viewBox="0 0 80 80"><defs><style>.cls-1{fill:none;}.cls-2{fill:#008fff;}</style></defs><title>skills_icon_04</title><g id="Layer_2" data-name="Layer 2"><g id="Layer_1-2" data-name="Layer 1"><circle class="cls-1" cx="40" cy="40" r="40"/><rect class="cls-2" x="19.71" y="51.86" width="7.78" height="5.5"/><rect class="cls-2" x="29.98" y="37.59" width="7.78" height="19.77"/><rect class="cls-2" x="40.26" y="45.43" width="7.78" height="11.93"/><rect class="cls-2" x="50.53" y="31" width="7.78" height="26.36"/><path class="cls-2" d="M23.6,43.57a2.82,2.82,0,1,1,2.82-2.81A2.81,2.81,0,0,1,23.6,43.57Zm0-4.41a1.6,1.6,0,1,0,1.6,1.6A1.6,1.6,0,0,0,23.6,39.16Z"/><path class="cls-2" d="M33.88,29.05a2.82,2.82,0,1,1,2.81-2.82A2.82,2.82,0,0,1,33.88,29.05Zm0-4.41a1.6,1.6,0,1,0,1.59,1.59A1.6,1.6,0,0,0,33.88,24.64Z"/><path class="cls-2" d="M44.62,37.57a2.82,2.82,0,1,1,2.82-2.81A2.81,2.81,0,0,1,44.62,37.57Zm0-4.41a1.6,1.6,0,1,0,1.6,1.6A1.6,1.6,0,0,0,44.62,33.16Z"/><path class="cls-2" d="M55,23a2.82,2.82,0,1,1,2.82-2.81A2.81,2.81,0,0,1,55,23Zm0-4.41a1.6,1.6,0,1,0,1.6,1.6A1.6,1.6,0,0,0,55,18.61Z"/><rect class="cls-2" x="22.18" y="32.99" width="13.4" height="1.22" transform="translate(-15.22 37.88) rotate(-54.86)"/><rect class="cls-2" x="38.62" y="25.85" width="1.22" height="9.34" transform="translate(-9.57 39.95) rotate(-48.82)"/><rect class="cls-2" x="43.12" y="26.91" width="13.45" height="1.22" transform="translate(-1.47 52.19) rotate(-54.58)"/></g></g></svg>